# xmcd
#
# Track frame offsets:
#	182
#	18107
#	38072
#	56285
#	74255
#	87870
#	107555
#	123892
#
# Disc length: 1932 seconds
#
# Revision: 0
# Processed by: cddbd v1.5.2PL0 Copyright (c) Steve Scherf et al.
# Submitted via: EasyCDDAExtractor 11.0.2.1
#
DISCID=56078a08
DTITLE=Various Artist - Motown Sampler 97
DYEAR=1997
DGENRE=R&B
TTITLE0=Marion Winans - Don't Know
TTITLE1=Taral Hicks - Distant Lover
TTITLE2=Ronnie Henson - What Are We Gonna Do
TTITLE3=Zhane - Request Line
TTITLE4=Zhane - Crush
TTITLE5=702 - No Doubt
TTITLE6=Shades - I Believe
TTITLE7=Johnny Gill - Love in an Elevator
EXTD=
EXTT0=
EXTT1=
EXTT2=
EXTT3=
EXTT4=
EXTT5=
EXTT6=
EXTT7=
PLAYORDER=
